<svg xmlns="http://www.w3.org/2000/svg" xmlns:xlink="http://www.w3.org/1999/xlink" version="1.1" width="75.9663302898407" height="76.10600161552429" viewBox="0.359932541847229 0.02613365650177002 75.9663302898407 76.10600161552429">
  <!-- Exported by Scratch - http://scratch.mit.edu/ -->
  <g id="ID0.8781489403918386">
    <path id="ID0.42939980793744326" fill="#725619" d="M 41.6571 3.4728 C 40.2692 3.8934 37.116 2.5494 37.0656 4.3074 C 34.3017 2.5434 40.7814 2.7411 41.6571 3.4728 L 41.6571 3.4728 L 41.6571 3.4728 Z " stroke-width="0.6634204387664795"/>
    <path id="ID0.2971645426005125" fill="#725619" d="M 64.6187 34.367 C 65.8872 33.6737 70.0322 33.6737 71.2987 34.367 C 69.0723 34.367 66.8458 34.367 64.6187 34.367 L 64.6187 34.367 L 64.6187 34.367 Z " stroke-width="0.6634204387664795"/>
    <path id="ID0.40910265455022454" fill="#A4A3A3" d="M 75.4736 33.9497 C 76.1682 35.4922 76.1682 39.9218 75.4736 41.4643 C 75.4736 38.9592 75.4736 36.4548 75.4736 33.9497 L 75.4736 33.9497 L 75.4736 33.9497 Z " stroke-width="0.6634204387664795"/>
    <path id="ID0.0037109493277966976" fill="#C48402" d="M 38.7347 56.4941 C 38.7347 57.8859 38.7347 59.2778 38.7347 60.6683 C 38.0434 60.2185 38.0434 56.9445 38.7347 56.4941 L 38.7347 56.4941 L 38.7347 56.4941 Z " stroke-width="0.6634204387664795"/>
    <path id="ID0.8889813269488513" fill="#C48402" d="M 42.075 61.5036 C 41.3831 61.0538 41.3831 57.7791 42.075 57.3293 C 42.075 58.7218 42.075 60.113 42.075 61.5036 L 42.075 61.5036 L 42.075 61.5036 Z " stroke-width="0.6634204387664795"/>
    <path id="ID0.10584816196933389" fill="#725619" d="M 35.813 72.7764 C 37.7608 72.7764 39.71 72.7764 41.6571 72.7764 C 42.2343 73.3828 36.5992 73.534 35.813 72.7764 L 35.813 72.7764 L 35.813 72.7764 Z " stroke-width="0.6634204387664795"/>
    <path id="ID0.310271377209574" fill="#A4A3A3" d="M 35.3951 75.2815 C 37.2042 75.2815 39.014 75.2815 40.8225 75.2815 C 39.966 75.9734 36.2515 75.9734 35.3951 75.2815 L 35.3951 75.2815 L 35.3951 75.2815 Z " stroke-width="0.6634204387664795"/>
    <path id="ID0.29946120362728834" fill="#A4A3A3" d="M 61.697 67.3476 C 63.4704 65.226 65.4195 63.2775 67.5424 61.5022 C 65.7684 63.6265 63.8193 65.5756 61.697 67.3476 L 61.697 67.3476 L 61.697 67.3476 Z " stroke-width="0.6634204387664795"/>
    <path id="ID0.6184042701497674" fill="#C48402" d="M 44.1622 26.8518 C 45.7962 24.8681 47.606 23.0597 49.5909 21.425 C 47.9556 23.4086 46.1471 25.2171 44.1622 26.8518 L 44.1622 26.8518 L 44.1622 26.8518 Z " stroke-width="0.6634204387664795"/>
    <path id="ID0.8687649718485773" fill="#2A2725" d="M 35.3951 75.2815 C 7.7119 74.1789 -7.994 42.8037 5.7528 18.9193 C 8.5955 13.9808 12.6789 9.1889 17.0256 6.3945 C 40.2407 -8.5344 73.496 5.5692 75.4743 33.949 C 75.4743 36.4541 75.4743 38.9592 75.4743 41.4636 C 74.7339 50.0469 71.2224 55.8585 67.5424 61.5029 C 65.4201 63.2782 63.4704 65.2253 61.697 67.3483 C 55.9286 71.1815 49.7608 74.6147 40.8225 75.2821 C 39.0134 75.2815 37.2042 75.2815 35.3951 75.2815 L 35.3951 75.2815 L 35.3951 75.2815 Z " stroke-width="0.6634204387664795"/>
    <path id="ID0.3568889098241925" fill="#2A2725" d="M 37.0656 4.3074 C 39.5733 11.5772 38.1522 21.963 34.9778 27.2697 C 36.6217 28.6881 38.6226 29.7489 40.4046 31.028 C 41.4076 29.386 43.1604 28.4951 44.1622 26.8524 C 46.1471 25.2178 47.9563 23.4093 49.5909 21.4257 C 53.3771 18.1139 57.0431 14.684 60.8618 11.4054 C 55.7309 7.4925 50.0659 4.1124 41.6578 3.4735 C 40.7814 2.7411 34.3017 2.5434 37.0656 4.3074 L 37.0656 4.3074 L 37.0656 4.3074 Z " stroke-width="0.6634204387664795"/>
    <path id="ID0.5225331471301615" fill="#2A2725" d="M 10.7629 17.2494 C 19.0962 19.0752 26.0667 22.2636 32.4727 26.0172 C 36.4658 20.7317 36.8533 10.7997 34.5605 3.4728 C 23.6645 5.1009 15.712 9.6738 10.7629 17.2494 L 10.7629 17.2494 L 10.7629 17.2494 Z " stroke-width="0.6634204387664795"/>
    <path id="ID0.06379866832867265" fill="#2A2725" d="M 45.8327 28.9389 C 44.9709 30.4442 43.3548 31.1925 42.4923 32.6965 C 44.7732 34.1733 46.4735 36.2306 48.755 37.7067 C 53.7499 32.6819 62.5999 31.5116 72.134 31.0267 C 70.2525 23.9997 67.3759 17.9706 62.9482 13.4918 C 58.92 15.8649 56.1349 19.4825 52.5113 22.2596 C 50.1117 24.3115 47.8859 26.538 45.8327 28.9389 L 45.8327 28.9389 L 45.8327 28.9389 Z " stroke-width="0.6634204387664795"/>
    <path id="ID0.2746362257748842" fill="#2A2725" d="M 8.6751 19.7545 C 6.1595 24.4747 4.0465 29.599 4.0836 36.8714 C 15.933 38.7874 27.2211 34.4473 30.3856 27.687 C 23.565 24.6273 17.1941 21.1172 8.6751 19.7545 L 8.6751 19.7545 L 8.6751 19.7545 Z " stroke-width="0.6634204387664795"/>
    <path id="ID0.3849429786205292" fill="#2A2725" d="M 32.89 29.7748 C 27.5388 37.2429 17.3175 42.0129 4.0836 40.2111 C 5.6168 50.2287 9.0838 58.3132 15.7731 63.174 C 22.1605 51.8866 30.712 42.7659 38.3174 32.6965 C 36.2389 31.992 35.1941 30.2531 32.89 29.7748 L 32.89 29.7748 L 32.89 29.7748 Z " stroke-width="0.6634204387664795"/>
    <path id="ID0.024530946277081966" fill="#2A2725" d="M 64.6187 34.367 C 61.3587 34.2947 50.8839 37.9495 50.8415 40.2117 C 50.8362 40.5076 54.3357 43.6144 55.0164 44.3866 C 59.0095 48.9165 63.3217 54.8773 65.0367 59.4178 C 70.5457 54.0699 72.8969 45.5675 72.5519 34.367 C 72.1333 34.367 71.716 34.367 71.2981 34.367 C 70.0329 33.6737 65.8879 33.6737 64.6187 34.367 L 64.6187 34.367 L 64.6187 34.367 Z " stroke-width="0.6634204387664795"/>
    <path id="ID0.07299845246598125" fill="#2A2725" d="M 38.7347 56.4941 C 39.0452 48.4554 42.9428 44.0019 46.25 38.9592 C 44.0142 37.8546 42.8844 35.6454 40.4039 34.7843 C 32.4515 44.6454 23.9922 53.9989 17.8602 65.6785 C 22.7901 69.0984 28.1299 72.109 35.8124 72.7764 C 36.5985 73.534 42.2336 73.3828 41.6564 72.7764 C 40.4298 68.9929 38.7307 65.6831 38.7347 60.6683 C 38.7347 59.2778 38.7347 57.8859 38.7347 56.4941 L 38.7347 56.4941 L 38.7347 56.4941 Z " stroke-width="0.6634204387664795"/>
    <path id="ID0.6075319410301745" fill="#2A2725" d="M 42.075 61.5036 C 41.9165 66.1163 43.642 68.8423 44.5801 72.3591 C 52.9717 70.871 59.2955 67.3145 63.3655 61.5036 C 59.4242 53.8968 55.0303 46.7391 48.3364 41.8816 C 45.3198 46.1022 42.1168 50.1352 42.075 57.3293 C 41.3838 57.7791 41.3838 61.0538 42.075 61.5036 L 42.075 61.5036 L 42.075 61.5036 Z " stroke-width="0.6634204387664795"/>
    <path id="ID0.1976206637918949" fill="#CC7700" d="M 41.6571 3.4728 C 50.0653 4.1111 55.7302 7.4918 60.8611 11.4047 C 57.0425 14.684 53.3764 18.1139 49.5903 21.425 C 47.6066 23.059 45.7955 24.8675 44.1615 26.8518 C 43.1597 28.4944 41.407 29.3854 40.4039 31.0273 C 38.6213 29.7483 36.6204 28.6881 34.9771 27.2691 C 38.1516 21.9624 39.5733 11.5765 37.0649 4.3068 C 37.116 2.5494 40.2692 3.8928 41.6571 3.4728 L 41.6571 3.4728 L 41.6571 3.4728 Z " stroke-width="0.6634204387664795"/>
    <path id="ID0.7045095204375684" fill="#725619" d="M 45.8327 28.9389 C 47.8866 26.538 50.1117 24.3115 52.5113 22.2596 C 50.4594 24.6605 48.2336 26.8876 45.8327 28.9389 L 45.8327 28.9389 L 45.8327 28.9389 Z " stroke-width="0.6634204387664795"/>
    <path id="ID0.202673374209553" fill="#FFAD00" d="M 52.5113 22.2602 C 56.1369 19.4832 58.92 15.8655 62.9482 13.4925 C 67.3759 17.9712 70.2525 24.0004 72.134 31.0273 C 62.5999 31.5116 53.7499 32.6826 48.755 37.7073 C 46.4735 36.2312 44.7732 34.1733 42.4923 32.6972 C 43.3548 31.1932 44.9709 30.4442 45.8327 28.9396 C 48.2336 26.8876 50.4594 24.6605 52.5113 22.2602 L 52.5113 22.2602 L 52.5113 22.2602 Z " stroke-width="0.6634204387664795"/>
    <path id="ID0.6094344258308411" fill="#CC7700" d="M 71.2994 34.367 C 71.7173 34.367 72.1346 34.367 72.5532 34.367 C 72.8982 45.5675 70.5471 54.0706 65.038 59.4178 C 63.3224 54.8773 59.0102 48.9165 55.0177 44.3866 C 54.337 43.6144 50.8375 40.5076 50.8428 40.2117 C 50.8839 37.9495 61.36 34.2947 64.6201 34.367 C 66.8458 34.367 69.0723 34.367 71.2994 34.367 L 71.2994 34.367 L 71.2994 34.367 Z " stroke-width="0.6634204387664795"/>
    <path id="ID0.2581343511119485" fill="#CC7700" d="M 35.813 72.7764 C 28.1306 72.109 22.7907 69.0984 17.8609 65.6785 C 23.9929 53.9996 32.4521 44.6454 40.4039 34.7843 C 42.8838 35.6454 44.0136 37.8546 46.25 38.9592 C 42.9435 44.0019 39.0459 48.4547 38.7347 56.4941 C 38.0434 56.9445 38.0434 60.2185 38.7347 60.6683 C 38.7307 65.6831 40.4311 68.9929 41.6564 72.7764 C 39.71 72.7764 37.7608 72.7764 35.813 72.7764 L 35.813 72.7764 L 35.813 72.7764 Z " stroke-width="0.6634204387664795"/>
    <path id="ID0.6018042843788862" fill="#FFAD00" d="M 42.075 57.3293 C 42.1168 50.1352 45.3205 46.1022 48.3364 41.8816 C 55.0303 46.7391 59.4242 53.8968 63.3655 61.5036 C 59.2941 67.3145 52.9717 70.871 44.5801 72.3591 C 43.642 68.8416 41.9152 66.1163 42.075 61.5036 C 42.075 60.113 42.075 58.7218 42.075 57.3293 L 42.075 57.3293 L 42.075 57.3293 Z " stroke-width="0.6634204387664795"/>
    <path id="ID0.26782077783718705" fill="#CC7700" d="M 30.3856 27.687 C 27.2211 34.4473 15.933 38.7874 4.0836 36.8714 C 4.0471 29.599 6.1595 24.4747 8.6751 19.7545 C 17.1941 21.1172 23.565 24.6273 30.3856 27.687 L 30.3856 27.687 L 30.3856 27.687 Z " stroke-width="0.6634204387664795"/>
    <path id="ID0.6840811623260379" fill="#FFAD00" d="M 38.3168 32.6965 C 30.7113 42.7659 22.1598 51.8866 15.7724 63.174 C 9.0831 58.3125 5.6161 50.2274 4.0829 40.2111 C 17.3169 42.0129 27.5382 37.2423 32.8893 29.7748 C 35.1941 30.2531 36.2389 31.992 38.3168 32.6965 L 38.3168 32.6965 L 38.3168 32.6965 Z " stroke-width="0.6634204387664795"/>
    <path id="ID0.3140264614485204" fill="#FFAD00" d="M 34.5598 3.4728 C 36.8526 10.8003 36.4652 20.7317 32.472 26.0172 C 26.0667 22.2636 19.0955 19.0758 10.7623 17.2494 C 15.712 9.6738 23.6645 5.1009 34.5598 3.4728 L 34.5598 3.4728 L 34.5598 3.4728 Z " stroke-width="0.6634204387664795"/>
  </g>
</svg>